{
	"asset":{
		"generator":"Khronos glTF Blender I/O v4.5.48",
		"version":"2.0"
	},
	"extensionsUsed":[
		"KHR_materials_specular"
	],
	"scene":0,
	"scenes":[
		{
			"name":"Scene",
			"nodes":[
				0
			]
		}
	],
	"nodes":[
		{
			"mesh":0,
			"name":"Box014.005",
			"scale":[
				0.009999999776482582,
				0.009999999776482582,
				0.009999999776482582
			]
		}
	],
	"materials":[
		{
			"doubleSided":true,
			"extensions":{
				"KHR_materials_specular":{
					"specularFactor":0
				}
			},
			"name":"08 - Defaultasfaa",
			"normalTexture":{
				"index":0
			},
			"pbrMetallicRoughness":{
				"baseColorTexture":{
					"index":1
				},
				"metallicRoughnessTexture":{
					"index":2
				}
			}
		}
	],
	"meshes":[
		{
			"name":"Mesh.001",
			"primitives":[
				{
					"attributes":{
						"POSITION":0,
						"NORMAL":1,
						"TEXCOORD_0":2
					},
					"indices":3,
					"material":0
				}
			]
		}
	],
	"textures":[
		{
			"sampler":0,
			"source":0
		},
		{
			"sampler":0,
			"source":1
		},
		{
			"sampler":0,
			"source":2
		}
	],
	"images":[
		{
			"mimeType":"image/jpeg",
			"name":"PalletRackTiling_Normal",
			"uri":"materials/textures/PalletRackTiling_Normal.jpg"
		},
		{
			"mimeType":"image/jpeg",
			"name":"PalletRackTiling_Albedo",
			"uri":"materials/textures/PalletRackTiling_Albedo.jpg"
		},
		{
			"mimeType":"image/jpeg",
			"name":"PalletRackTiling_Metalness-PalletRackTiling_Roughness",
			"uri":"materials/textures/PalletRackTiling_Metalness-PalletRackTiling_Roughness.jpg"
		}
	],
	"accessors":[
		{
			"bufferView":0,
			"componentType":5126,
			"count":842,
			"max":[
				132.10708618164062,
				75.90677642822266,
				305.9549865722656
			],
			"min":[
				-125.7300033569336,
				-75.90677642822266,
				0
			],
			"type":"VEC3"
		},
		{
			"bufferView":1,
			"componentType":5126,
			"count":842,
			"type":"VEC3"
		},
		{
			"bufferView":2,
			"componentType":5126,
			"count":842,
			"type":"VEC2"
		},
		{
			"bufferView":3,
			"componentType":5123,
			"count":1440,
			"type":"SCALAR"
		}
	],
	"bufferViews":[
		{
			"buffer":0,
			"byteLength":10104,
			"byteOffset":0,
			"target":34962
		},
		{
			"buffer":0,
			"byteLength":10104,
			"byteOffset":10104,
			"target":34962
		},
		{
			"buffer":0,
			"byteLength":6736,
			"byteOffset":20208,
			"target":34962
		},
		{
			"buffer":0,
			"byteLength":2880,
			"byteOffset":26944,
			"target":34963
		}
	],
	"samplers":[
		{
			"magFilter":9729,
			"minFilter":9987
		}
	],
	"buffers":[
		{
			"byteLength":29824,
			"uri":"base_visual.bin"
		}
	]
}
