{
	"asset":{
		"generator":"Khronos glTF Blender I/O v4.5.48",
		"version":"2.0"
	},
	"extensionsUsed":[
		"KHR_materials_specular"
	],
	"scene":0,
	"scenes":[
		{
			"name":"Scene",
			"nodes":[
				0
			]
		}
	],
	"nodes":[
		{
			"mesh":0,
			"name":"PickingShelvesShort.039",
			"scale":[
				0.009999999776482582,
				0.009999999776482582,
				0.009999999776482582
			],
			"translation":[
				0,
				0,
				0.05079999938607216
			]
		}
	],
	"materials":[
		{
			"doubleSided":true,
			"extensions":{
				"KHR_materials_specular":{
					"specularColorFactor":[
						1.6399999856948853,
						1.6399999856948853,
						1.6399999856948853
					]
				}
			},
			"name":"Post",
			"normalTexture":{
				"index":0
			},
			"pbrMetallicRoughness":{
				"baseColorTexture":{
					"index":1
				},
				"metallicRoughnessTexture":{
					"index":2
				}
			}
		}
	],
	"meshes":[
		{
			"name":"Mesh.001",
			"primitives":[
				{
					"attributes":{
						"POSITION":0,
						"NORMAL":1,
						"TEXCOORD_0":2
					},
					"indices":3,
					"material":0
				}
			]
		}
	],
	"textures":[
		{
			"sampler":0,
			"source":0
		},
		{
			"sampler":0,
			"source":1
		},
		{
			"sampler":0,
			"source":2
		}
	],
	"images":[
		{
			"mimeType":"image/jpeg",
			"name":"PickingShelves_Normal",
			"uri":"materials/textures/PickingShelves_Normal.jpg"
		},
		{
			"mimeType":"image/jpeg",
			"name":"PickingShelves_Albedo",
			"uri":"materials/textures/PickingShelves_Albedo.jpg"
		},
		{
			"mimeType":"image/jpeg",
			"name":"PickingShelves_Metalness-PickingShelves_Roughness",
			"uri":"materials/textures/PickingShelves_Metalness-PickingShelves_Roughness.jpg"
		}
	],
	"accessors":[
		{
			"bufferView":0,
			"componentType":5126,
			"count":884,
			"max":[
				45.72000503540039,
				22.967117309570312,
				185.4199981689453
			],
			"min":[
				-45.720001220703125,
				-22.967117309570312,
				-5.079999923706055
			],
			"type":"VEC3"
		},
		{
			"bufferView":1,
			"componentType":5126,
			"count":884,
			"type":"VEC3"
		},
		{
			"bufferView":2,
			"componentType":5126,
			"count":884,
			"type":"VEC2"
		},
		{
			"bufferView":3,
			"componentType":5123,
			"count":1740,
			"type":"SCALAR"
		}
	],
	"bufferViews":[
		{
			"buffer":0,
			"byteLength":10608,
			"byteOffset":0,
			"target":34962
		},
		{
			"buffer":0,
			"byteLength":10608,
			"byteOffset":10608,
			"target":34962
		},
		{
			"buffer":0,
			"byteLength":7072,
			"byteOffset":21216,
			"target":34962
		},
		{
			"buffer":0,
			"byteLength":3480,
			"byteOffset":28288,
			"target":34963
		}
	],
	"samplers":[
		{
			"magFilter":9729,
			"minFilter":9987
		}
	],
	"buffers":[
		{
			"byteLength":31768,
			"uri":"base_visual.bin"
		}
	]
}
